<?xml version="1.0" encoding="utf-8"?>
<!-- Generator: Adobe Illustrator 19.2.1, SVG Export Plug-In . SVG Version: 6.00 Build 0)  -->
<svg version="1.2" baseProfile="tiny" id="Layer_1" xmlns="http://www.w3.org/2000/svg" xmlns:xlink="http://www.w3.org/1999/xlink"
	 x="0px" y="0px" viewBox="0 0 41.2 41.2" xml:space="preserve">
<g>
	<path fill="#010101" d="M26,0c2.1,0,4.1,0.4,6,1.2c1.9,0.8,3.5,1.9,4.8,3.2c1.4,1.4,2.5,3,3.2,4.8s1.2,3.8,1.2,6
		c0,2.1-0.4,4.1-1.2,5.9c-0.8,1.9-1.9,3.5-3.2,4.8c-1.4,1.4-3,2.5-4.8,3.2c-1.9,0.8-3.8,1.2-6,1.2c-1.9,0-3.8-0.3-5.5-1
		c-1.7-0.7-3.3-1.6-4.6-2.8L1.2,41.2L0,40.1l14.7-14.7c-1.2-1.4-2.1-2.9-2.8-4.7c-0.7-1.7-1-3.6-1-5.5c0-2.1,0.4-4.1,1.2-6
		s1.9-3.5,3.2-4.8c1.4-1.4,3-2.5,4.8-3.2C22,0.4,23.9,0,26,0z M26,28.8c1.9,0,3.6-0.4,5.3-1.1c1.6-0.7,3.1-1.7,4.3-2.9
		s2.2-2.7,2.9-4.3c0.7-1.6,1.1-3.4,1.1-5.2c0-1.9-0.4-3.6-1.1-5.3s-1.7-3.1-2.9-4.3c-1.2-1.2-2.7-2.2-4.3-2.9
		C29.7,2,27.9,1.7,26,1.7c-1.9,0-3.6,0.4-5.2,1.1c-1.6,0.7-3.1,1.7-4.3,2.9c-1.2,1.2-2.2,2.7-2.9,4.3c-0.7,1.6-1.1,3.4-1.1,5.3
		c0,1.9,0.4,3.6,1.1,5.2c0.7,1.6,1.7,3.1,2.9,4.3c1.2,1.2,2.7,2.2,4.3,2.9C22.4,28.4,24.2,28.8,26,28.8z"/>
</g>
</svg>
