<svg xmlns="http://www.w3.org/2000/svg"  viewBox="0 0 16.4 17"><path d="M5.4 16.2c-2 0-3.5-1.3-3.5-2.8 0-1.5 1.8-2.8 3.8-2.7.5 0 .9.1 1.3.2 1.1.8 1.9 1.2 2.1 2.1 0 .2.1.4.1.5 0 1.5-1 2.7-3.8 2.7m.5-9c-1.3-.1-2.6-1.6-2.9-3.3-.2-1.8.7-3.1 2-3.1 1.4 0 2.6 1.5 2.9 3.3.3 1.7-.6 3.1-2 3.1m2.8 2.6c-.4-.3-1.4-1.2-1.4-1.6 0-.6.2-.8 1-1.5.9-.7 1.5-1.7 1.5-2.8 0-1.3-.6-2.6-1.7-3h1.7l1.2-.9h-5.3c-2.3 0-4.6 1.8-4.6 3.9 0 2.1 1.6 3.8 4 3.8h.5c-.1.3-.2.6-.2 1 0 .6.3 1.1.7 1.5h-.9c-2.9-.1-5.2 1.8-5.2 3.7 0 1.9 2.5 3.1 5.4 3.1 3.3 0 5.2-1.9 5.2-3.8 0-1.5-.5-2.4-1.9-3.4m7.7-2.5h-2.1v-2h-1.7v2.1h-2.1v1.6h2.1v2h1.7v-2h2.1v-1.7z"/></svg>