<svg xmlns="http://www.w3.org/2000/svg" viewBox="0 0 16.4 17"><path d="M5.4 16.2c-2 0-3.5-1.3-3.5-2.8 0-1.5 1.8-2.8 3.8-2.7.5 0 .9.1 1.3.2 1.1.8 1.9 1.2 2.1 2.1 0 .2.1.4.1.5 0 1.5-1 2.7-3.8 2.7m.5-9C4.6 7.1 3.3 5.6 3 3.9 2.8 2.1 3.7.8 5 .8c1.4 0 2.6 1.5 2.9 3.3.3 1.7-.6 3.1-2 3.1m2.8 2.6c-.4-.3-1.4-1.2-1.4-1.6 0-.6.2-.8 1-1.5C9.2 6 9.8 5 9.8 3.9c0-1.3-.6-2.6-1.7-3h1.7L11 0H5.7C3.4 0 1.1 1.8 1.1 3.9c0 2.1 1.6 3.8 4 3.8h.5c-.1.3-.2.6-.2 1 0 .6.3 1.1.7 1.5h-.9C2.3 10.1 0 12 0 13.9 0 15.8 2.5 17 5.4 17c3.3 0 5.2-1.9 5.2-3.8 0-1.5-.5-2.4-1.9-3.4m7.7-2.5h-2.1v-2h-1.7v2.1h-2.1V9h2.1v2h1.7V9h2.1V7.3z"/></svg>