<svg xmlns="http://www.w3.org/2000/svg" viewBox="0 0 17 7.4"><path d="M.8 7l.3-1.6-.2-1.5s0-.1-.1-.1c0 0-.1 0-.1.1L.6 5.4.8 7zm-.5-.6zm-.1 0l.2-1-.1-.9s0-.1-.1-.1c0 0-.1 0-.1.1l-.1.9.2 1zm1.4-2.8c-.1-.1-.2 0-.2 0l-.2 1.8.2 1.7s0 .1.1.1c0 0 .1 0 .1-.1l.2-1.7-.2-1.8zm.6 3.7l.3-1.9-.2-1.8c0-.1 0-.1-.1-.1s-.1 0-.1.1l-.2 1.8.3 1.9zm.6.1c.1 0 .1 0 .1-.1l.2-1.8L3 3.7c0-.1-.1-.1-.1-.1-.1 0-.1 0-.1.1l-.2 1.7.1 1.8c0 .1.1.2.1.2zm1-2l-.1-2.8c0-.1-.1-.1-.1-.1-.1 0-.1.1-.1.1l-.2 2.8.1 1.8c0 .1.1.1.1.1.1 0 .1-.1.1-.1l.2-1.8zm.4 2c.1 0 .1-.1.1-.1l.1-1.8V2c0-.1-.1-.1-.1-.1-.2-.1-.2 0-.2.1l-.2 3.4.1 1.8c.1.1.1.2.2.2zm.7-5.9c-.1 0-.2.1-.2.2l-.1 3.7.1 1.8c0 .1.1.2.2.2s.2-.1.2-.2l.1-1.8-.1-3.7c0-.1-.1-.2-.2-.2zm.7 5.9c.1 0 .2-.1.2-.2l.1-1.8-.1-3.8c0-.1-.1-.2-.2-.2s-.2.1-.2.2l-.1 3.8.1 1.8c0 .1.1.2.2.2zm.7 0c.1 0 .2-.1.2-.2l.1-1.8-.1-3.7c0-.1-.1-.2-.2-.2s-.2.1-.2.2L6 5.4l.1 1.8c0 .1.1.2.2.2zm1-2l-.1-3.6c0-.1-.1-.2-.2-.2s-.2.1-.2.2l-.1 3.6.1 1.7c0 .1.1.2.2.2s.2-.1.2-.2l.1-1.7zm.4 2c.2 0 .3-.1.3-.2l.1-1.7L8 1.1C8 1 7.9.9 7.7.9c-.1 0-.2.1-.2.2v4.3l.1 1.7c-.1.2 0 .3.1.3zM8.5.5c-.1 0-.2.1-.2.2l-.2 4.7.1 1.7c0 .1.1.2.2.2s.2-.1.2-.2l.1-1.7V.7c0-.1-.1-.2-.2-.2zm.6 6.9h5.8c1.2 0 2.1-.9 2.1-2.1 0-1.2-.9-2.1-2.1-2.1-.3 0-.6.1-.8.2-.2-1.9-1.7-3.4-3.7-3.4-.4 0-.9.1-1.3.2-.2.1-.2.2-.2.3v6.6c0 .2.1.3.2.3z"/></svg>