<svg version="1.2" baseProfile="tiny" id="Layer_1" xmlns="http://www.w3.org/2000/svg" x="0" y="0" viewBox="0 0 41.2 41.2" xml:space="preserve"><path fill="#010101" d="M26 0c2.1 0 4.1.4 6 1.2 1.9.8 3.5 1.9 4.8 3.2 1.4 1.4 2.5 3 3.2 4.8s1.2 3.8 1.2 6c0 2.1-.4 4.1-1.2 5.9-.8 1.9-1.9 3.5-3.2 4.8-1.4 1.4-3 2.5-4.8 3.2-1.9.8-3.8 1.2-6 1.2-1.9 0-3.8-.3-5.5-1-1.7-.7-3.3-1.6-4.6-2.8L1.2 41.2 0 40.1l14.7-14.7c-1.2-1.4-2.1-2.9-2.8-4.7-.7-1.7-1-3.6-1-5.5 0-2.1.4-4.1 1.2-6s1.9-3.5 3.2-4.8c1.4-1.4 3-2.5 4.8-3.2C22 .4 23.9 0 26 0zm0 28.8c1.9 0 3.6-.4 5.3-1.1 1.6-.7 3.1-1.7 4.3-2.9s2.2-2.7 2.9-4.3c.7-1.6 1.1-3.4 1.1-5.2 0-1.9-.4-3.6-1.1-5.3s-1.7-3.1-2.9-4.3c-1.2-1.2-2.7-2.2-4.3-2.9-1.6-.8-3.4-1.1-5.3-1.1s-3.6.4-5.2 1.1c-1.6.7-3.1 1.7-4.3 2.9-1.2 1.2-2.2 2.7-2.9 4.3-.7 1.6-1.1 3.4-1.1 5.3s.4 3.6 1.1 5.2c.7 1.6 1.7 3.1 2.9 4.3 1.2 1.2 2.7 2.2 4.3 2.9 1.6.7 3.4 1.1 5.2 1.1z"/></svg>